<?xml version="1.0" encoding="utf-8"?>
<!-- Generator: Adobe Illustrator 16.0.0, SVG Export Plug-In . SVG Version: 6.00 Build 0)  -->
<!DOCTYPE svg PUBLIC "-//W3C//DTD SVG 1.1//EN" "http://www.w3.org/Graphics/SVG/1.1/DTD/svg11.dtd">
<svg version="1.1" id="Layer_1" xmlns="http://www.w3.org/2000/svg" xmlns:xlink="http://www.w3.org/1999/xlink" x="0px" y="0px"
	 width="25px" height="25px" viewBox="2.5 2.5 25 25" enable-background="new 2.5 2.5 25 25" xml:space="preserve">
<g id="surface1">
	<path fill="#FFC107" d="M27.167,12.418h-1.009v-0.052H14.874v5.015h7.087c-1.036,2.92-3.813,5.015-7.087,5.015
		c-4.156,0-7.522-3.365-7.522-7.522c0-4.156,3.367-7.522,7.522-7.522c1.916,0,3.665,0.723,4.99,1.905l3.547-3.545
		c-2.238-2.087-5.233-3.375-8.537-3.375c-6.926,0-12.538,5.612-12.538,12.538c0,6.925,5.612,12.538,12.538,12.538
		c6.925,0,12.538-5.613,12.538-12.538C27.412,14.034,27.326,13.214,27.167,12.418z"/>
	<path fill="#FF3D00" d="M3.781,9.039l4.121,3.022c1.114-2.76,3.813-4.709,6.972-4.709c1.917,0,3.664,0.723,4.99,1.905l3.547-3.545
		c-2.237-2.087-5.232-3.375-8.536-3.375C10.058,2.336,5.882,5.054,3.781,9.039z"/>
	<path fill="#4CAF50" d="M14.874,27.412c3.238,0,6.181-1.239,8.408-3.254L19.4,20.874c-1.259,0.952-2.824,1.522-4.525,1.522
		c-3.263,0-6.03-2.079-7.073-4.98l-4.09,3.15C5.786,24.626,10.001,27.412,14.874,27.412z"/>
	<path fill="#1976D2" d="M27.167,12.418h-1.009v-0.052H14.874v5.015h7.087c-0.496,1.404-1.4,2.61-2.563,3.493
		c0.002,0,0.002,0,0.002,0l3.881,3.283c-0.274,0.248,4.131-3.015,4.131-9.283C27.412,14.034,27.326,13.214,27.167,12.418z"/>
</g>
</svg>
