<?xml version="1.0" encoding="utf-8"?>
<!-- Generator: Adobe Illustrator 16.0.0, SVG Export Plug-In . SVG Version: 6.00 Build 0)  -->
<!DOCTYPE svg PUBLIC "-//W3C//DTD SVG 1.1//EN" "http://www.w3.org/Graphics/SVG/1.1/DTD/svg11.dtd">
<svg version="1.1" id="Layer_1" xmlns="http://www.w3.org/2000/svg" xmlns:xlink="http://www.w3.org/1999/xlink" x="0px" y="0px"
	 width="16.021px" height="25px" viewBox="2.107 8.431 16.021 25" enable-background="new 2.107 8.431 16.021 25"
	 xml:space="preserve">
<path fill="#005578" d="M18.029,32.313c0,0.623-0.636,1.131-1.419,1.131H3.525c-0.783,0-1.418-0.506-1.418-1.131V9.562
	c0-0.625,0.636-1.13,1.418-1.13h13.083c0.785,0,1.421,0.506,1.421,1.13V32.313L18.029,32.313z"/>
<path fill="#006F89" d="M16.798,8.458c0.637,0,1.153,0.506,1.153,1.13v22.75c0,0.625-0.516,1.131-1.153,1.131H6.176
	c-0.637,0-1.153-0.506-1.153-1.131"/>
<rect x="4.779" y="12.766" fill="#2CC1D9" width="10.461" height="16.007"/>
<ellipse fill="#2CC1D9" cx="10.01" cy="31.149" rx="1.276" ry="1.25"/>
<path fill="#FFFFFF" d="M11.668,10.725c0,0.229-0.191,0.416-0.426,0.416H8.777c-0.234,0-0.425-0.187-0.425-0.416l0,0
	c0-0.231,0.19-0.417,0.425-0.417h2.465C11.477,10.307,11.668,10.494,11.668,10.725L11.668,10.725z"/>
</svg>
